<svg width="32" height="32" viewBox="0 0 32 32" fill="none" xmlns="http://www.w3.org/2000/svg">
<g id="Frame" clip-path="url(#clip0_459_16557)">
<path id="Vector" d="M5.3335 7.99992C5.3335 7.29267 5.61445 6.6144 6.11454 6.1143C6.61464 5.6142 7.29292 5.33325 8.00016 5.33325H10.6668C11.3741 5.33325 12.0524 5.6142 12.5524 6.1143C13.0525 6.6144 13.3335 7.29267 13.3335 7.99992V9.33325C13.3335 10.0405 13.0525 10.7188 12.5524 11.2189C12.0524 11.719 11.3741 11.9999 10.6668 11.9999H8.00016C7.29292 11.9999 6.61464 11.719 6.11454 11.2189C5.61445 10.7188 5.3335 10.0405 5.3335 9.33325V7.99992Z" stroke="#090066" stroke-width="1.75" stroke-linecap="round" stroke-linejoin="round"/>
<path id="Vector_2" d="M5.3335 19.9999C5.3335 19.2927 5.61445 18.6144 6.11454 18.1143C6.61464 17.6142 7.29292 17.3333 8.00016 17.3333H10.6668C11.3741 17.3333 12.0524 17.6142 12.5524 18.1143C13.0525 18.6144 13.3335 19.2927 13.3335 19.9999V23.9999C13.3335 24.7072 13.0525 25.3854 12.5524 25.8855C12.0524 26.3856 11.3741 26.6666 10.6668 26.6666H8.00016C7.29292 26.6666 6.61464 26.3856 6.11454 25.8855C5.61445 25.3854 5.3335 24.7072 5.3335 23.9999V19.9999Z" stroke="#090066" stroke-width="1.75" stroke-linecap="round" stroke-linejoin="round"/>
<path id="Vector_3" d="M18.6665 7.99992C18.6665 7.29267 18.9475 6.6144 19.4476 6.1143C19.9477 5.6142 20.6259 5.33325 21.3332 5.33325H23.9998C24.7071 5.33325 25.3854 5.6142 25.8855 6.1143C26.3856 6.6144 26.6665 7.29267 26.6665 7.99992V11.9999C26.6665 12.7072 26.3856 13.3854 25.8855 13.8855C25.3854 14.3856 24.7071 14.6666 23.9998 14.6666H21.3332C20.6259 14.6666 19.9477 14.3856 19.4476 13.8855C18.9475 13.3854 18.6665 12.7072 18.6665 11.9999V7.99992Z" stroke="#090066" stroke-width="1.75" stroke-linecap="round" stroke-linejoin="round"/>
<path id="Vector_4" d="M18.6665 22.6667C18.6665 21.9594 18.9475 21.2811 19.4476 20.781C19.9477 20.281 20.6259 20 21.3332 20H23.9998C24.7071 20 25.3854 20.281 25.8855 20.781C26.3856 21.2811 26.6665 21.9594 26.6665 22.6667V24C26.6665 24.7072 26.3856 25.3855 25.8855 25.8856C25.3854 26.3857 24.7071 26.6667 23.9998 26.6667H21.3332C20.6259 26.6667 19.9477 26.3857 19.4476 25.8856C18.9475 25.3855 18.6665 24.7072 18.6665 24V22.6667Z" stroke="#090066" stroke-width="1.75" stroke-linecap="round" stroke-linejoin="round"/>
</g>
<defs>
<clipPath id="clip0_459_16557">
<rect width="32" height="32" fill="white"/>
</clipPath>
</defs>
</svg>
