<svg xmlns="http://www.w3.org/2000/svg" width="57" height="56" viewBox="0 0 57 56" fill="none">
  <mask id="path-1-inside-1_403_10474" fill="white">
    <path d="M54.219 28C55.4788 28 56.5097 26.977 56.4072 25.7214C56.0206 20.9867 54.4342 16.4146 51.7812 12.444C48.7045 7.83946 44.3315 4.25063 39.2151 2.13137C34.0988 0.0121193 28.4689 -0.542374 23.0375 0.538012C17.606 1.6184 12.6169 4.28514 8.70101 8.20101C4.78514 12.1169 2.1184 17.106 1.03801 22.5375C-0.042374 27.9689 0.512119 33.5988 2.63137 38.7151C4.75063 43.8315 8.33946 48.2045 12.944 51.2812C16.9146 53.9342 21.4867 55.5206 26.2214 55.9072C27.477 56.0097 28.5 54.9788 28.5 53.719C28.5 52.4592 27.4763 51.4495 26.2225 51.3271C22.3913 50.9531 18.6986 49.6396 15.4785 47.488C11.6242 44.9126 8.62008 41.2521 6.84612 36.9693C5.07215 32.6866 4.608 27.974 5.51236 23.4275C6.41672 18.8809 8.64897 14.7047 11.9268 11.4268C15.2047 8.14897 19.3809 5.91672 23.9275 5.01236C28.474 4.108 33.1866 4.57215 37.4693 6.34612C41.7521 8.12008 45.4126 11.1242 47.988 14.9785C50.1396 18.1986 51.4531 21.8913 51.8271 25.7225C51.9495 26.9763 52.9592 28 54.219 28Z"/>
  </mask>
  <path d="M54.219 28C55.4788 28 56.5097 26.977 56.4072 25.7214C56.0206 20.9867 54.4342 16.4146 51.7812 12.444C48.7045 7.83946 44.3315 4.25063 39.2151 2.13137C34.0988 0.0121193 28.4689 -0.542374 23.0375 0.538012C17.606 1.6184 12.6169 4.28514 8.70101 8.20101C4.78514 12.1169 2.1184 17.106 1.03801 22.5375C-0.042374 27.9689 0.512119 33.5988 2.63137 38.7151C4.75063 43.8315 8.33946 48.2045 12.944 51.2812C16.9146 53.9342 21.4867 55.5206 26.2214 55.9072C27.477 56.0097 28.5 54.9788 28.5 53.719C28.5 52.4592 27.4763 51.4495 26.2225 51.3271C22.3913 50.9531 18.6986 49.6396 15.4785 47.488C11.6242 44.9126 8.62008 41.2521 6.84612 36.9693C5.07215 32.6866 4.608 27.974 5.51236 23.4275C6.41672 18.8809 8.64897 14.7047 11.9268 11.4268C15.2047 8.14897 19.3809 5.91672 23.9275 5.01236C28.474 4.108 33.1866 4.57215 37.4693 6.34612C41.7521 8.12008 45.4126 11.1242 47.988 14.9785C50.1396 18.1986 51.4531 21.8913 51.8271 25.7225C51.9495 26.9763 52.9592 28 54.219 28Z" stroke="#090066" stroke-opacity="0.47" stroke-width="10" mask="url(#path-1-inside-1_403_10474)"/>
</svg>