<svg xmlns="http://www.w3.org/2000/svg" width="414" height="292" viewBox="0 0 414 292" fill="none">
  <path opacity="0.03" d="M301.094 236.268C288.327 236.268 275.511 235.534 262.793 236.561C255.065 237.197 242.396 231.034 240.83 243.018C239.608 252.361 241.809 265.078 254.527 268.943C262.451 271.34 271.158 273.1 268.37 283.617C265.679 293.694 255.798 291.052 248.363 291.15C223.808 291.395 199.253 291.395 174.697 291.15C168.192 291.101 159.925 292.52 158.409 282.932C157.039 274.177 162.958 270.801 170.442 269.53C186.388 266.79 187.562 252.996 185.997 242.578C184.236 230.789 171.42 236.855 163.741 236.659C135.272 235.876 106.755 235.827 78.2862 236.512C58.2311 237.001 49.5732 228.49 50.4536 208.337C51.2852 188.722 50.845 169.059 50.5515 149.395C50.3558 138.682 50.7471 129.878 65.6173 130.954C78.5797 131.883 92.4715 129.878 92.8139 149.052C92.9118 153.944 92.9607 158.884 92.9607 163.776C93.1074 182.07 104.064 191.462 120.549 191.706C138.354 192 150.436 182.412 150.68 162.895C151.023 134.427 150.974 105.909 150.827 77.441C150.778 64.6742 151.61 54.4021 169.072 54.1086C187.073 53.8151 190.644 63.5492 190.546 78.1747C190.399 97.8385 190.644 117.453 190.546 137.117C190.448 155.313 196.856 168.129 217.156 168.423C237.113 168.716 244.939 156.928 245.184 138.438C245.282 132.568 245.282 126.649 245.282 120.78C245.331 109.774 248.119 101.263 261.717 101.85C273.848 102.388 275.658 110.41 275.658 120.046C275.658 138.731 275.218 157.368 275.853 176.004C276.538 195.766 287.348 207.848 307.257 207.212C325.747 206.625 334.307 194.69 335.676 176.151C339.052 131.883 339.394 131.981 383.564 131.003C391.293 130.856 399.07 131.981 406.505 127.726C415.114 122.785 421.864 127.383 426.267 134.525C427.832 137.068 427.49 142.693 425.68 145.041C420.593 151.498 414.723 154.335 405.429 149.884C381.852 138.682 375.395 148.808 375.542 172.776C375.836 236.365 389.091 236.903 312.882 236.268C308.969 236.268 305.007 236.268 301.094 236.268ZM135.125 103.17C135.125 90.4035 135.614 77.6367 135.027 64.9188C133.756 38.5048 146.229 27.6457 172.252 28.0859C198.372 28.5261 206.345 42.418 205.074 65.946C204.389 78.6639 203.557 91.6263 205.318 104.149C207.177 117.111 196.073 139.759 216.422 140.688C238.874 141.715 227.183 118.432 229.189 106.007C232.368 86.5392 241.222 75.2398 261.668 75.8757C282.799 76.5605 290.577 89.0828 289.941 108.893C289.599 119.655 288.914 130.563 290.186 141.226C291.8 155.362 281.968 178.939 304.518 179.477C329.415 180.113 320.806 155.607 321.638 140.59C322.567 123.91 323.79 105.322 344.579 106.692C377.499 108.893 378.037 90.5991 376.08 67.1689C375.102 55.4782 374.857 43.543 376.08 31.9013C378.917 6.71011 367.031 -0.284713 343.503 0.00877669C267.978 0.938159 192.454 0.351181 116.929 0.351181C51.7254 0.351181 50.8939 0.351182 51.1385 65.3101C51.2363 86.6859 44.7795 94.9036 24.3331 87.6642C16.5556 84.925 9.80537 81.0118 3.39752 88.8871C-0.613505 93.8764 -1.49397 99.4527 3.05511 104.882C9.07164 112.024 14.8925 110.018 23.5505 107.964C46.3937 102.534 70.6066 100.871 92.8629 109.48C112.82 117.209 104.456 138.34 108.467 153.65C110.423 161.085 114.483 166.026 123.043 164.558C130.968 163.189 134.832 158.248 134.881 150.275C134.881 134.574 134.881 118.872 134.881 103.219C134.979 103.219 135.028 103.219 135.125 103.219V103.17Z" fill="white"/>
</svg>