<svg xmlns="http://www.w3.org/2000/svg" width="164" height="204" viewBox="0 0 164 204" fill="none">
  <path d="M115.415 90.5659C110.521 90.5659 105.609 90.2846 100.734 90.6784C97.7711 90.9221 92.9149 88.5596 92.3149 93.1534C91.8461 96.7346 92.6899 101.61 97.5649 103.091C100.602 104.01 103.94 104.685 102.871 108.716C101.84 112.578 98.0524 111.566 95.2024 111.603C85.7899 111.697 76.3774 111.697 66.9649 111.603C64.4711 111.585 61.3024 112.128 60.7211 108.453C60.1961 105.097 62.4649 103.803 65.3336 103.316C71.4461 102.266 71.8961 96.9784 71.2961 92.9846C70.6211 88.4659 65.7086 90.7909 62.7649 90.7159C51.8524 90.4159 40.9211 90.3971 30.0086 90.6596C22.3211 90.8471 19.0023 87.5846 19.3398 79.8596C19.6586 72.3409 19.4898 64.8034 19.3773 57.2659C19.3023 53.1596 19.4523 49.7846 25.1523 50.1971C30.1211 50.5534 35.4461 49.7846 35.5773 57.1346C35.6148 59.0096 35.6336 60.9034 35.6336 62.7784C35.6898 69.7909 39.8898 73.3909 46.2086 73.4846C53.0336 73.5971 57.6648 69.9221 57.7586 62.4409C57.8899 51.5284 57.8711 40.5971 57.8148 29.6846C57.7961 24.7909 58.1149 20.8534 64.8086 20.7409C71.7086 20.6284 73.0774 24.3596 73.0399 29.9659C72.9836 37.5034 73.0774 45.0221 73.0399 52.5596C73.0024 59.5346 75.4586 64.4471 83.2399 64.5596C90.8899 64.6721 93.8899 60.1534 93.9836 53.0659C94.0211 50.8159 94.0211 48.5471 94.0211 46.2971C94.0399 42.0784 95.1086 38.8159 100.321 39.0409C104.971 39.2471 105.665 42.3221 105.665 46.0159C105.665 53.1784 105.496 60.3221 105.74 67.4659C106.002 75.0409 110.146 79.6721 117.777 79.4284C124.865 79.2034 128.146 74.6284 128.671 67.5221C129.965 50.5534 130.096 50.5909 147.027 50.2159C149.99 50.1596 152.971 50.5909 155.821 48.9596C159.121 47.0659 161.709 48.8284 163.396 51.5659C163.996 52.5409 163.865 54.6971 163.171 55.5971C161.221 58.0721 158.971 59.1596 155.409 57.4534C146.371 53.1596 143.896 57.0409 143.952 66.2284C144.065 90.6034 149.146 90.8096 119.934 90.5659C118.434 90.5659 116.915 90.5659 115.415 90.5659ZM51.7961 39.5471C51.7961 34.6534 51.9836 29.7596 51.7586 24.8846C51.2711 14.7596 56.0523 10.5971 66.0274 10.7659C76.0399 10.9346 79.0961 16.2596 78.6086 25.2784C78.3461 30.1534 78.0274 35.1221 78.7024 39.9221C79.4149 44.8909 75.1586 53.5721 82.9586 53.9284C91.5649 54.3221 87.0836 45.3971 87.8524 40.6346C89.0711 33.1721 92.4649 28.8409 100.302 29.0846C108.402 29.3471 111.384 34.1471 111.14 41.7409C111.009 45.8659 110.746 50.0471 111.234 54.1346C111.852 59.5534 108.084 68.5909 116.727 68.7971C126.271 69.0409 122.971 59.6471 123.29 53.8909C123.646 47.4971 124.115 40.3721 132.084 40.8971C144.702 41.7409 144.909 34.7284 144.159 25.7471C143.784 21.2659 143.69 16.6909 144.159 12.2284C145.246 2.57211 140.69 -0.109136 131.671 0.00336427C102.721 0.359614 73.7711 0.134614 44.8211 0.134614C19.8273 0.134614 19.5086 0.134615 19.6023 25.0346C19.6398 33.2284 17.1648 36.3784 9.32733 33.6034C6.34608 32.5534 3.75858 31.0534 1.30233 34.0721C-0.235168 35.9846 -0.572668 38.1221 1.17108 40.2034C3.47733 42.9409 5.70858 42.1721 9.02734 41.3846C17.7836 39.3034 27.0648 38.6659 35.5961 41.9659C43.2461 44.9284 40.0398 53.0284 41.5773 58.8971C42.3273 61.7471 43.8836 63.6409 47.1648 63.0784C50.2023 62.5534 51.6836 60.6596 51.7024 57.6034C51.7024 51.5846 51.7024 45.5659 51.7024 39.5659C51.7398 39.5659 51.7586 39.5659 51.7961 39.5659V39.5471Z" fill="white"/>
  <path d="M38.5588 145.935C50.1838 145.935 58.2088 153.678 58.2088 165.341C58.2088 177.003 49.9213 184.747 37.9775 184.747H26.7838V202.616H14.915V145.935H38.5588ZM26.765 175.466H35.3713C42.1588 175.466 46.1338 171.847 46.1338 165.378C46.1338 158.91 42.215 155.328 35.4088 155.328H26.765V175.485V175.466Z" fill="white"/>
  <path d="M99.6276 202.616H62.0713V145.935H99.6276V155.722H73.94V169.391H98.1838V178.503H73.94V192.81H99.6276V202.635V202.616Z" fill="white"/>
  <path d="M114.646 186.472C115.19 191.141 120.065 194.216 126.346 194.216C132.628 194.216 136.996 191.197 136.996 187.035C136.996 183.341 134.278 181.297 127.453 179.76L120.065 178.147C109.621 175.916 104.465 170.61 104.465 162.322C104.465 151.879 113.503 144.96 126.14 144.96C138.778 144.96 147.628 151.747 147.815 162.004H136.696C136.303 157.204 132.103 154.297 126.178 154.297C120.253 154.297 116.39 157.091 116.39 161.291C116.39 164.797 119.146 166.747 125.653 168.247L132.534 169.691C143.878 172.129 148.828 177.004 148.828 185.647C148.828 196.654 139.903 203.591 125.84 203.591C111.778 203.591 103.528 197.104 103.171 186.472H114.609H114.646Z" fill="white"/>
</svg>
