<svg width="58" height="40" viewBox="0 0 58 40" fill="none" xmlns="http://www.w3.org/2000/svg">
<path id="Vector" d="M40.8728 32.4329C39.1397 32.4329 37.4 32.3321 35.6736 32.4731C34.6245 32.5604 32.9047 31.7144 32.6922 33.3595C32.5262 34.642 32.825 36.3878 34.5514 36.9182C35.6271 37.2472 36.8091 37.489 36.4306 38.9326C36.0654 40.3158 34.7241 39.9532 33.7148 39.9667C30.3815 40.0002 27.0481 40.0002 23.7148 39.9667C22.8317 39.96 21.7095 40.1547 21.5037 38.8386C21.3177 37.6367 22.1212 37.1734 23.1371 36.9988C25.3018 36.6228 25.4611 34.7293 25.2487 33.299C25.0096 31.6808 23.2699 32.5134 22.2274 32.4866C18.3629 32.3791 14.4917 32.3724 10.6272 32.4664C7.90475 32.5336 6.72945 31.3652 6.84897 28.5988C6.96185 25.9062 6.90209 23.207 6.86225 20.5077C6.83569 19.0372 6.88881 17.8285 8.9074 17.9763C10.667 18.1038 12.5528 17.8285 12.5993 20.4607C12.6126 21.1321 12.6192 21.8103 12.6192 22.4818C12.6391 24.993 14.1265 26.2823 16.3642 26.3158C18.7812 26.3561 20.4213 25.0401 20.4545 22.3609C20.501 18.453 20.4944 14.5384 20.4744 10.6305C20.4678 8.87794 20.5807 7.46787 22.9512 7.42758C25.3947 7.3873 25.8795 8.72351 25.8662 10.7312C25.8463 13.4305 25.8795 16.123 25.8662 18.8223C25.8529 21.3202 26.7228 23.0794 29.4784 23.1197C32.1876 23.16 33.25 21.5417 33.2832 19.0036C33.2965 18.1978 33.2965 17.3854 33.2965 16.5796C33.3031 15.0688 33.6816 13.9005 35.5275 13.9811C37.1743 14.0549 37.42 15.1561 37.42 16.4789C37.42 19.0439 37.3602 21.6022 37.4465 24.1604C37.5395 26.8731 39.0069 28.5317 41.7095 28.4444C44.2194 28.3638 45.3814 26.7254 45.5673 24.1806C46.0255 18.1038 46.072 18.1173 52.068 17.983C53.1171 17.9628 54.1729 18.1173 55.1822 17.5331C56.3508 16.8549 57.2672 17.4861 57.8648 18.4664C58.0773 18.8156 58.0308 19.5878 57.7851 19.9101C57.0945 20.7964 56.2977 21.1859 55.0361 20.5748C51.8356 19.0372 50.9591 20.4271 50.979 23.7173C51.0189 32.4463 52.8183 32.5201 42.4731 32.4329C41.9419 32.4329 41.404 32.4329 40.8728 32.4329ZM18.343 14.1624C18.343 12.4098 18.4094 10.6573 18.3297 8.91152C18.157 5.28562 19.8503 3.79497 23.3828 3.8554C26.9286 3.91583 28.0109 5.82279 27.8383 9.05252C27.7453 10.7983 27.6325 12.5777 27.8715 14.2966C28.1238 16.076 26.6165 19.1849 29.3788 19.3125C32.4266 19.4535 30.8396 16.2573 31.1119 14.5518C31.5435 11.8794 32.7453 10.3283 35.5209 10.4156C38.3894 10.5096 39.4452 12.2285 39.3589 14.948C39.3124 16.4252 39.2194 17.9225 39.3921 19.3863C39.6112 21.3269 38.2765 24.5633 41.3376 24.6372C44.7174 24.7245 43.5488 21.3604 43.6616 19.299C43.7878 17.0094 43.9538 14.4578 46.7758 14.6458C51.2446 14.948 51.3177 12.4367 51.0521 9.22039C50.9193 7.61559 50.8861 5.97722 51.0521 4.37914C51.4372 0.921109 49.8236 -0.039083 46.6298 0.00120479C36.3775 0.128783 26.1252 0.0482072 15.8729 0.0482072C7.02162 0.0482072 6.90873 0.0482073 6.94193 8.96523C6.95521 11.8995 6.07872 13.0276 3.30316 12.0338C2.24739 11.6578 1.33106 11.1206 0.461206 12.2017C-0.0832819 12.8866 -0.202804 13.652 0.414725 14.3974C1.23146 15.3777 2.02163 15.1024 3.19692 14.8204C6.29785 14.0751 9.58469 13.8468 12.6059 15.0285C15.3151 16.0895 14.1796 18.9902 14.7241 21.0919C14.9897 22.1125 15.5409 22.7907 16.7029 22.5892C17.7786 22.4012 18.3031 21.723 18.3098 20.6285C18.3098 18.4731 18.3098 16.3178 18.3098 14.1691C18.323 14.1691 18.3297 14.1691 18.343 14.1691V14.1624Z" fill="#322B80"/>
</svg>
